<svg xmlns="http://www.w3.org/2000/svg" xmlns:xlink="http://www.w3.org/1999/xlink" width="180" height="178" viewBox="0 0 180 178"><defs><clipPath id="a"><ellipse cx="90" cy="89" rx="90" ry="89" transform="translate(171 4182)" fill="#fff" stroke="#707070" stroke-width="1"/></clipPath></defs><g transform="translate(-171 -4182)" clip-path="url(#a)"><g transform="translate(172 4182)"><path d="M89,0a89,89,0,1,0,89,89A89,89,0,0,0,89,0Zm0,172.067A83.067,83.067,0,1,1,172.067,89,83.067,83.067,0,0,1,89,172.067Zm0,0"/><path d="M130.533,53.4H47.467A2.967,2.967,0,0,0,44.5,56.367v65.267a2.967,2.967,0,0,0,2.967,2.967h83.067a2.967,2.967,0,0,0,2.967-2.967V56.367A2.967,2.967,0,0,0,130.533,53.4Zm-8.011,5.933L89,88.06,55.477,59.333ZM50.433,118.667V62.816l36.636,31.4a2.964,2.964,0,0,0,3.856,0l36.642-31.4v55.851Zm0,0"/></g></g></svg>