<svg xmlns="http://www.w3.org/2000/svg" xmlns:xlink="http://www.w3.org/1999/xlink" width="500" height="985" viewBox="0 0 500 985"><defs><style>.a,.l{fill:#4a3f3f;}.a,.b{stroke:#1effb1;}.b,.e,.g,.i,.p,.s{fill:#fff;}.c{clip-path:url(#d);}.d{fill:#86cccc;}.e{stroke:#00ffb1;stroke-width:2px;}.f,.h{fill:#1d1d1d;}.f,.g,.h,.o{stroke:#707070;}.f{font-size:18px;}.f,.h,.o{font-family:Montserrat-ExtraLight, Montserrat;font-weight:200;}.h,.o{font-size:15px;}.i{font-size:28px;}.i,.p{font-family:Montserrat-Black, Montserrat;font-weight:800;}.j{fill:rgba(255,255,255,0.8);stroke:#33fec3;stroke-width:1.5px;}.k{clip-path:url(#a);}.m{clip-path:url(#b);}.n{fill:rgba(255,255,255,0.82);}.o{fill:#2b2a2a;}.p{font-size:30px;}.q{stroke:none;}.r{fill:none;}</style><clipPath id="a"><rect class="a" width="44" height="29" transform="translate(0.174 0.047)"/></clipPath><clipPath id="b"><rect class="b" width="35.71" height="29.589" rx="14.794"/></clipPath><clipPath id="d"><rect width="500" height="985"/></clipPath></defs><g id="c" class="c"><rect class="s" width="500" height="985"/><rect class="d" width="500" height="985"/><g transform="translate(48 -97)"><g transform="translate(99 451)"><g class="e"><rect class="q" width="238" height="53" rx="20"/><rect class="r" x="1" y="1" width="236" height="51" rx="19"/></g><text class="f" transform="translate(16 32)"><tspan x="0" y="0">Destination:</tspan></text></g><g class="g" transform="translate(227 465)"><rect class="q" width="90" height="25"/><rect class="r" x="0.5" y="0.5" width="89" height="24"/></g><text class="h" transform="translate(233.5 483.5)"><tspan x="0" y="0">Dropdown</tspan></text></g><g transform="translate(193 500)"><text class="i" transform="translate(0 27)"><tspan x="0" y="0">Default</tspan></text></g><g transform="translate(21 553.556)"><g transform="translate(317 0.444)"><g class="e"><rect class="q" width="153" height="50" rx="20"/><rect class="r" x="1" y="1" width="151" height="48" rx="19"/></g><text class="f" transform="translate(35 31)"><tspan x="0" y="0">Delete All</tspan></text></g><g transform="translate(147 0.444)"><g class="e"><rect class="q" width="160" height="50" rx="20"/><rect class="r" x="1" y="1" width="158" height="48" rx="19"/></g><text class="f" transform="translate(13 31.667)"><tspan x="0" y="0">See Past Cards</tspan></text></g><g class="e"><rect class="q" width="137" height="50" rx="20"/><rect class="r" x="1" y="1" width="135" height="48" rx="19"/></g><text class="f" transform="translate(28 31)"><tspan x="0" y="0">Copy All</tspan></text></g><g transform="translate(120.5 628)"><g class="j"><rect class="q" width="259" height="95"/><rect class="r" x="0.75" y="0.75" width="257.5" height="93.5"/></g></g><g transform="translate(161 747)"><g class="b"><rect class="q" width="67" height="54" rx="20"/><rect class="r" x="0.5" y="0.5" width="66" height="53" rx="19.5"/></g><g class="k" transform="translate(11.826 12.953)"><path class="l" d="M18.737,25.416v2.269a1.384,1.384,0,0,1-1.405,1.362H1.405A1.384,1.384,0,0,1,0,27.685V6.808A1.384,1.384,0,0,1,1.405,5.446H5.621V22.239A3.233,3.233,0,0,0,8.9,25.416Zm0-19.516V0H8.9A1.384,1.384,0,0,0,7.495,1.362V22.239A1.384,1.384,0,0,0,8.9,23.6H24.826a1.384,1.384,0,0,0,1.405-1.362V7.262H20.142A1.388,1.388,0,0,1,18.737,5.9ZM25.82,4.14,21.959.4a1.428,1.428,0,0,0-.994-.4H20.61V5.446h5.621V5.1a1.34,1.34,0,0,0-.412-.963Z" transform="translate(9.037)"/></g></g><g transform="translate(269 747)"><g class="b"><rect class="q" width="67" height="54" rx="20"/><rect class="r" x="0.5" y="0.5" width="66" height="53" rx="19.5"/></g><g class="m" transform="translate(16 12.411)"><path d="M1.519,26.815A2.563,2.563,0,0,0,3.8,29.589H17.465a2.563,2.563,0,0,0,2.278-2.774V7.4H1.519ZM14.428,12.02a.854.854,0,0,1,.759-.925.854.854,0,0,1,.759.925V24.965a.854.854,0,0,1-.759.925.854.854,0,0,1-.759-.925Zm-4.556,0a.854.854,0,0,1,.759-.925.854.854,0,0,1,.759.925V24.965a.854.854,0,0,1-.759.925.854.854,0,0,1-.759-.925Zm-4.556,0a.854.854,0,0,1,.759-.925.854.854,0,0,1,.759.925V24.965a.854.854,0,0,1-.759.925.854.854,0,0,1-.759-.925ZM20.5,1.849h-5.7L14.361.769A1.139,1.139,0,0,0,13.341,0H7.916A1.128,1.128,0,0,0,6.9.769L6.455,1.849H.759A.854.854,0,0,0,0,2.774V4.623a.854.854,0,0,0,.759.925H20.5a.854.854,0,0,0,.759-.925V2.774A.854.854,0,0,0,20.5,1.849Z" transform="translate(7.625 0)"/></g></g><rect class="n" width="500" height="56"/><g transform="translate(31 19)"><g transform="translate(347)"><text class="o" transform="translate(0 15)"><tspan x="0" y="0">Con</tspan></text></g><g transform="translate(395)"><text class="o" transform="translate(0 15)"><tspan x="0" y="0">Other</tspan></text></g><text class="o" transform="translate(0 15)"><tspan x="0" y="0">Settings</tspan></text><g transform="translate(301)"><text class="o" transform="translate(0 15)"><tspan x="0" y="0">Pro</tspan></text></g></g><g transform="translate(116 98)"><text class="p" transform="translate(0 29)"><tspan x="0" y="0">Evidence Locker</tspan></text></g><g transform="translate(62 160)"><g class="j"><rect class="q" width="376" height="164"/><rect class="r" x="0.75" y="0.75" width="374.5" height="162.5"/></g></g><g transform="translate(184.5 431)"><g class="e"><rect class="q" width="147" height="44" rx="20"/><rect class="r" x="1" y="1" width="145" height="42" rx="19"/></g><text class="f" transform="translate(20.5 28)"><tspan x="0" y="0">Create Card</tspan></text></g></g></svg>